{"title":"The Colony 2013 1080p.BluRay.5.1.x264 . NVEE","uid":13137581,"size":2303955882,"categoryP":"video","categoryS":"hd___movies","magnet":"?xt=urn:btih:b24a0af5514cb0deea4591e42f608a49ef82891c&amp;dn=The+Colony+2013+1080p.BluRay.5.1.x264+.+NVEE&amp;tr=udp%3A%2F%2Ftracker.leechers-paradise.org%3A6969&amp;tr=udp%3A%2F%2Fzer0day.ch%3A1337&amp;tr=udp%3A%2F%2Fopen.demonii.com%3A1337&amp;tr=udp%3A%2F%2Ftracker.coppersurfer.tk%3A6969&amp;tr=udp%3A%2F%2Fexodus.desync.com%3A6969","seeders":0,"leechers":1,"uploader":".NVEE","files":3,"time":1451925766,"description":"Quick note : \r\n\r\nYou require a torrent release I have posted in the past, not seeding,... \r\nPlease do not hesitate to inform me in any means you find fit to do so. \r\nTorrent requests also &quot;Always Welcome.&quot; \r\n\r\n \r\nFULL_INFOs \r\n\r\n99.99% &gt;&gt;&gt; SYNCED GUARANTEED \r\n\r\n&quot;Totally scrutinized / analyzed to be a verified torrent.&quot; \r\n___________________________________________ \r\n\r\nSource : Blu-ray ~ 1080p \r\n\r\n \r\n\r\nSpoken Language : English \r\n\r\nAudio : 6 ~ Channels Only \r\n\r\n \r\nSubs Info : \r\n\r\nx2 ~ Multisubs .srt \r\n\r\nAll .srt UTF-8 .idx &amp; .ass subs can be turned On/Off \r\n_____________________________________ \r\n--------------------------------------------------------------------------------- \r\n \r\nGeneral Metadata \r\n\r\nComplete name : The Colony 2013.1080p.BluRay.5.1.x264 . NVEE.mp4 \r\nFormat : MPEG-4 \r\nFormat profile : Base Media \r\nCodec ID : isom \r\nFile size : 2.15 GiB \r\nDuration : 1h 34mn \r\nOverall bit rate : 3 253 Kbps \r\nEncoded date : UTC 2013-09-13 18:54:43 \r\nTagged date : UTC 2013-09-13 18:54:43 \r\n\r\n \r\nVideo \r\n\r\nID : 1 \r\nFormat : AVC \r\nFormat/Info : Advanced Video Codec \r\nFormat profile :    \r\nFormat settings, CABAC : Yes \r\nFormat settings, ReFrames : 4 frames \r\nCodec ID : avc1 \r\nCodec ID/Info : Advanced Video Coding \r\nDuration : 1h 34mn \r\nBit rate : 2 611 Kbps \r\nMaximum bit rate : 14.4 Mbps \r\nWidth : 1 920 pixels \r\nHeight : 816 pixels \r\nDisplay aspect ratio : 2.35:1 \r\nFrame rate mode : Constant \r\nFrame rate : 23.976 fps \r\nColor space : YUV \r\nChroma subsampling : 4:2:0 \r\nBit depth : 8 bits \r\nScan type : Progressive \r\nBits/(Pixel*Frame) : 0.070 \r\nStream size : 1.72 GiB (80%) \r\nTitle : 1080p.BluRay.x264 .264#trackID=1:   \r\nWriting library : x264 core 133 r2334 a3ac64b \r\n\r\nEncoded from Physical Blu-ray / Region A \r\n\r\n \r\nAudio \r\n\r\nID : 2 \r\nFormat : AC-3 \r\nFormat/Info : Audio Coding 3 \r\nMode extension : CM (complete main) \r\nFormat settings, Endianness : Big \r\nCodec ID : ac-3 \r\nDuration : 1h 34mn \r\nBit rate mode : Constant \r\nBit rate : 640 Kbps \r\nChannel(s) : 6 channels \r\nChannel positions : Front: L C R, Side: L R, LFE \r\nSampling rate : 48.0 KHz \r\nBit depth : 16 bits \r\nCompression mode : Lossy \r\nStream size : 432 MiB (20%) \r\nTitle : 1080p.BluRay.x264 . NVEE - [0] English_audio.ac3#trackID=1:   \r\nLanguage : English \r\nEncoded date : UTC 2013-09-13 19:03:39 \r\nTagged date : UTC 2013-09-13 19:05:40 \r\n\r\nEncoded from Physical Blu-ray 6 Channel audio &quot;Only&quot;. \r\n\r\n \r\n\r\n \r\n\r\n \r\n\r\n\r\n\r\n\r\nEnj0y !","torrent":{"xt":"urn:btih:b24a0af5514cb0deea4591e42f608a49ef82891c","amp;dn":"The+Colony+2013+1080p.BluRay.5.1.x264+.+NVEE","amp;tr":["udp%3A%2F%2Ftracker.leechers-paradise.org%3A6969","udp%3A%2F%2Fzer0day.ch%3A1337","udp%3A%2F%2Fopen.demonii.com%3A1337","udp%3A%2F%2Ftracker.coppersurfer.tk%3A6969","udp%3A%2F%2Fexodus.desync.com%3A6969"],"infoHash":"b24a0af5514cb0deea4591e42f608a49ef82891c","infoHashBuffer":{"type":"Buffer","data":[178,74,10,245,81,76,176,222,234,69,145,228,47,96,138,73,239,130,137,28]},"announce":[],"urlList":[]}}